<?xml version="1.0" encoding="utf-8"?>
<!-- Generator: Adobe Illustrator 16.0.0, SVG Export Plug-In . SVG Version: 6.00 Build 0)  -->
<!DOCTYPE svg PUBLIC "-//W3C//DTD SVG 1.1//EN" "http://www.w3.org/Graphics/SVG/1.1/DTD/svg11.dtd">
<svg version="1.1" id="Calque_1" xmlns="http://www.w3.org/2000/svg" xmlns:xlink="http://www.w3.org/1999/xlink" x="0px" y="0px"
	 width="1200px" height="1200px" viewBox="0 0 1200 1200" enable-background="new 0 0 1200 1200" xml:space="preserve">
<g>
	<path fill="none" d="M169.657,30.235c334.053,0,668.146,0.097,1002.222-0.365c13.475-0.016,16.119,2.635,16.07,16.071
		c-0.453,370.775-0.453,741.533,0,1112.275c0.049,13.46-2.596,16.186-16.07,16.12c-138.846-0.649-277.773-0.39-416.619-0.39
		c-1.393-1.524-2.205-3.309-2.545-5.352c11.791-59.175,35.043-113.305,71.467-161.516c9.324-12.292,15.906-24.909,17.609-40.607
		c2.92-26.773,16.852-43.234,42.928-54.975c62.156-28.022,118.654-65.709,171.146-109.656
		c33.357-28.005,62.822-59.189,86.645-95.385c25.525-38.854,40.152-80.774,28.412-128.054
		c-5.123-20.603-16.508-38.522-28.377-55.615c-25.803-37.063-30.293-74.288-5.045-113.232
		c21.131-30.601,33.779-63.634,28.963-101.572c-2.998-17.157-11.496-31.574-22.25-44.855c-4.846-6.016-11.205-11.141-10.863-19.962
		c5.691-18.997,3.617-23.83-14.467-30.852c-9.682-3.787-19.523-7.371-29.432-10.646c-4.248-1.395-11.254-4.549-9.764,5.563
		c8.061,13.119,9.666,28.297,14.012,42.56c2.838,5.732,6.748,10.565,13.719,7.987c14.271-5.247,22.283,3.454,29.807,12.803
		c26.982,33.268,26.451,72.585-0.031,106.194c-14.904,18.949-30.277,37.695-40.283,60.13c-6.225,13.881-12.113,13.979-19.623,0.154
		c-13.1-24.163-24.744-48.861-44.318-69.083c-55.15-56.945-122.678-90.002-199.285-106.778c-18.08-3.949-31.961-1.063-41.482,16.079
		c-2.805,5.06-6.875,9.543-10.021,14.498c-7.281,11.408-15.275,14.562-27.471,6.008c-16.021-11.189-34.51-15.495-53.984-14.814
		c-24.146,0.835-48.406-2.375-72.422,2.806c-11.4,2.44-21.1-1.459-26.719-11.887c-15.689-28.995-37.208-53.425-57.803-78.893
		c-11.644-14.384-13.8-35.919-13.687-55.777c0.187-31.136-10.062-59.117-26.984-84.756c-11.952-18.17-21.852-17.903-33.503,0.243
		c-7.095,11.028-15.544,21.325-21.325,32.928c-9.316,18.722-32.449,20.627-43.006,37.468c-1.614,2.57-6.065,1.922-9.316,1.192
		c-41.117-9.098-81.756-5.311-122.135,4.638c-1.281,0.316-2.756,1.208-3.786,0.779c-20.725-8.635-46.469-9.503-60.496-28.728
		C193.269,80.766,186.425,52.646,169.657,30.235z"/>
	<path fill="none" d="M755.293,1170.183c0,1.233-0.033,2.5-0.033,3.764c-242.152,0-484.257-0.195-726.403,0.455
		c-14.903,0-16.76-3.989-16.744-17.418c0.398-370.386,0.43-740.787-0.064-1111.173c-0.016-13.751,3.089-16.224,16.257-15.941
		c45.779,0.973,91.6,0.365,137.411,0.365c2.124,6.908-2.708,10.938-6.463,15.276c-29.4,34.16-47.271,72.285-45.86,118.827
		c0.366,12.276-5.181,25.03-3.356,38.044c-3.373,16.378-10.427,31.517-15.892,47.198c-3.746,7.119-10.589,11.035-16.557,15.868
		c-15.657,12.454-31.298,24.965-44.637,40.022c-10.637,11.992-15.592,25.144-7.516,40.655c18,14.692,20.854,34.104,20.222,56.109
		c-0.714,24.86,5.116,49.347,12.64,73.031c5.011,15.843,3.714,30.008-1.978,45.617C36.527,575.07,32.222,630.06,52.404,685.423
		c8.935,24.504,22.63,45.472,43.801,61.251c16.079,11.967,28.266,26.529,33.908,46.443c4.898,17.222,14.182,32.369,27.666,44.401
		c13.184,11.806,22.452,8.368,25.46-9.18c0.981-5.772,0.494-11.74,0.875-17.609c1.297-19.169,4.622-22.883,23.846-23.11
		c31.42-0.371,62.556-3.438,93.456-8.708c25.792-4.395,49.258-16.54,74.377-23.352c9.122,4.313,12.179,12.795,10.379,21.163
		c-5.173,24.163,0.373,47.919,1.119,71.774c-1.727,29.4,1.476,58.493,7.038,87.373c2.57,13.283,1.16,25.25-4.265,37.916
		c-9.3,21.68-17.725,43.897,1.224,65.84c8.919,10.344,18.106,15.079,30.406,7.621c11.392-6.875,21.819-14.222,16.143-31.022
		c-5.464-16.135,6.374-33.293-1.646-49.623c-0.616-5.934-1.03-11.902-2.676-17.675c2.344-14.952-0.94-29.709-1.427-44.531
		c-0.162-5.222,0.503-11.028,5.546-13.881c5.685-3.181,9.852,1.053,13.517,4.8c4.605,4.701,9.665,9.047,15.162,12.292
		c27.317,16.055,31.582,37.8,20.028,66.18c-8.335,20.512-7.37,42.163,1.978,62.789c9.414,20.759,29.336,26.402,49.469,14.109
		c15.511-6.908,19.127-14.79,14.343-34.54c-2.919-12.066-7.557-23.742-9.163-36.067c-2.294-17.821,3.682-23.448,20.668-18.682
		c18.997,5.32,38.627,6.504,57.803,10.313c20.516,4.054,22.59,9.358,10.914,27.324c-14.254,21.927-32.75,40.738-45.844,63.538
		c-9.187,15.99-10.995,32.871-10.314,50.871c0.698,19.248,15.009,27.762,27.527,37.396c6.949,5.303,20.848-1.639,23.555-10.347
		c0.779-2.515,1.039-5.206,0.813-7.802c-5.871-63.324,36.73-105.065,67.85-151.867c5.285-7.963,13.168-7.882,20.645-2.577
		c7.572,5.367,13.635,12.112,16.863,21.097c0.551,1.945,0.715,3.908,0.551,5.919c-7.182,32.676-22.783,62.175-35.725,92.662
		c-4.217,9.941-6.373,19.753-2.789,30.227c13.799,13.881,23.189,33.698,47.191,33.634
		C747.754,1161.784,751.969,1166.033,755.293,1170.183z"/>
	<path fill="#020202" d="M374.091,756.792c-42.163,27.73-90.569,30.908-138.675,35.256c-1.93,0.161-3.892,0.307-5.879,0.388
		c-12.357,0.552-27.365-3.016-36.39,2.758c-10.379,6.682-2.732,23.027-4.759,34.964c-1.428,8.365-2.976,17.724-11.49,21.533
		c-9.682,4.314-15.446-4.491-21.658-9.697c-19.281-16.28-28.233-38.789-35.619-61.931c-1.84-5.74-3.17-10.508-8.619-14.156
		c-84.756-56.613-88.705-157.009-64.947-229.383c8.651-26.335,12.211-49.752,3.041-76.388c-5.846-16.955-8.635-36.146-7.557-54.001
		c1.476-24.341-4.298-44.222-21.406-61.112c-2.368-3.762-2.238-6.973,2.091-9.227c7.257,0.333,9,7.541,13.72,10.93
		c9.13-23.133,28.046-33.414,50.879-33.349c34.76,0.065,64.097,14.846,87.642,40.468c4.452,4.849,6.617,11.189,7.558,17.749
		c0.567,15.3,8.902,20.393,23.238,17.919c5.059-0.859,10.273-2.011,14.871,1.727c-2.522,19.298-17.481,18.114-29.887,15.511
		c-11.603-2.408-19.809-0.713-27.098,8.003c-11.157,8.286-23.798,12.421-37.517,13.638c-9.26,0.049-18.543,0.681-27.698-1.216
		c-19.241-6.081-36-15.56-45.779-34.071c0.633,10.241-0.203,20.401,2.854,30.22c1.517,7.938,2.425,16.021,7.079,22.995
		c3.697,9.041,0.875,19.062,3.997,28.549c-0.746,2.125,4.322,0.065,1.71,0.252c-1.224,0.081-1.443-0.438-1.03-1.679
		c2.23-6.681,3.941-14.133,13.833-8.773c1.363,3.77,0.268,7.313-0.859,10.865c-3.244,11.57-4.37,23.79-10.565,34.452
		C41.49,572.621,37.768,635.411,67.25,698.704c7.419,15.958,21.09,26.272,32.579,38.58c4.727,5.011,9.495,9.973,15.089,14.091
		c34.59,25.688,73.072,32.256,115.284,26.207c25.135-3.617,50.863-3.242,75.771-9.356c60.69-14.839,109.259-48.877,149.266-95.728
		c21.276-24.94,17.335-55.33,14.101-84.511c-6.625-59.653-27.869-112.754-73.429-154.033c-6.048-10.581-2.1-14.181,8.83-12.146
		c11.311,2.091,18.601,10.419,26.335,17.903c11.741,11.497,21.706,24.349,29.076,39.089c4.833,9.665,9.568,9.503,14.798,0.414
		c9.868-17.084,16.792-35.32,21.187-54.512c1.913-8.319,0.122-14.295-9.649-15.292c-4.728-0.502-9.625-1.71-10.346-7.143
		c-0.778-6.098,4.273-9.082,8.725-11.871c11.651-7.313,24.455-8.335,37.792-6.616c24.495,10.07,30.073,22.89,17.984,40.89
		c-10.363,1.144-11.676-11.44-20.758-13.971c-5.416,9.803-2.708,20.676-5.448,30.504c-5.481,19.629-11.822,38.928-24.754,54.917
		c-9.617,11.878-11.295,24.114-7.143,38.376c8.416,28.995,11.959,58.688,10.662,88.932c0.065,10.217-3.138,19.85-5.335,29.677
		c-3.535,13.135-10.225,24.6-18.446,35.287c-2.692,4.49-4.403,9.389-4.152,14.658c0.365,7.396,4.719,3.276,7.89,2.4
		c97.494-45.114,163.333-147.01,158.696-250.771c-3.893-86.889-30.504-166.739-83.224-236.957c-4.5-5.992-6.908-11.4-16.208-3.867
		c-9.414,7.646-14.376-2.319-11.425-9.098c12.073-27.95-6.957-37.015-26.003-47.028c-8.684-4.565-17.319-9.204-26.522-12.69
		c-8.716-3.713-17.303-7.703-24.957-13.378c-17.068-13.022-17.068-13.022-30.788,3.584c-2.538,3.057-4.978,6.097-9.349,6.56
		c-1.979-0.349-3.632-1.224-5.149-2.522c-11.854-11.125-27.268-13.135-41.725-11.959c-28.897,2.311-58.274,2.457-86.223,12.041
		c-16.622,2.473-28.623,15.414-44.482,19.613c-12.057-0.835-11.279-6.065-4.598-13.371c5.595-6.178,14.895-7.751,18.365-17.383
		c-26.092,4.086-42.268,27.998-66.593,35.57c-16.055,7.938-33.009,12.835-50.726,14.928c-10.484,7.038,0,17.238-3.771,25.29
		c-1.103,3.754-2.424,7.273-7.192,7.467c-3.754-1.808-7.095-3.851-4.914-8.927c-4.021-65.645,10.476-124.892,59.345-172.317
		c1.313,0,2.611,0,3.916,0c20.944,11.489,24.682,34.192,34.225,52.988c7.808,15.373,12.341,34.103,36.285,29.303
		c1.167-0.21,3.259,0.105,3.706,0.9c14.148,24.293,33.763,8.765,51.43,7.144c34.355-3.179,68.799-10.12,102.837,2.027
		c2.627,0.941,5.676,1.856,6.924-0.73c10.232-21.527,39.439-24.568,46.979-49.338c2.92-9.601,10.728-17.823,16.752-26.353
		c11.327-16.159,24.463-16.094,35.555,0.625c16.824,25.378,29.757,52.841,30.252,83.645c0.316,18.868,8.237,36.35,6.827,55.152
		c-0.365,4.914,4.006,6.243,6.746,8.765c23.247,21.568,42.245,46.517,56.044,74.96c5.262,10.874,11.424,13.168,22.582,11.677
		c34.459-4.606,69-5.984,103.479,0.575c9.113,1.711,18.859,3.949,25.037,10.346c11.125,11.538,15.52,6.957,23.514-3.998
		c29.951-41.133,18.211-40.022,72.52-27.803c57.035,12.803,107.971,38.863,153.783,74.548
		c37.314,29.06,64.752,66.155,81.357,115.007c10.898-31.419,29.514-53.003,46.785-75.423c27.713-36.082,25.492-77.669-6.633-109.811
		c-3.957-3.957-7.006-9.665-14.303-3.543c-13.428,11.311-19.086,1.832-23.416-9.811c-1.932-3.357-0.082-4.8,2.887-5.676
		c5.934,1.338,10.604,11.093,17.92,2.685c2.301-2.571,4.15-5.457,6.42-8.02c3.291-5.026,14.465-5.042,11.449-13.013
		c-3.518-9.284-14.982-8.076-22.77-11.846c-5.691-2.06-10.879-5.198-16.199-8.035c-4.572-3.503-9.422,1.046-14.092-0.349
		c-2.771-6.673-5.107-14.084,6.504-11.725c19.037,3.884,37.668,10.063,54.033,20.425c11.27,7.095,13.168,17.555,0.713,26.838
		c-6.697,11.012,2.984,16.922,7.912,23.741c25.365,34.946,29.549,70.461,4.412,107.33c-15.602,23.708-35.627,44.465-47.238,70.858
		c-5.887,15.568,0.859,30.649,2.627,45.666c2.109,17.83,3.389,35.813,6.535,53.546c0.098,6.446-1.459,12.503-4.426,18.204
		c-6.926,12.089-8.449,26.052-13.184,38.903c-4.283,11.684-8.904,23.182-15.861,33.576c-4.412,6.648-10.217,10.086-18.293,8.206
		c-7.266-1.687-11.156-6.909-12.113-13.881c-2.254-16.12-1.396-33.958-16.104-44.734c-20.465-14.96-44.191-24.016-69.373-24.876
		c-49.85-1.743-95.84,14.879-143.84,32.847c32.188,24.925,60.357,49.963,81.389,81.974c6.844,10.412,12.537,21.472,17.953,32.661
		c6.582,13.557,17.303,19.103,32.012,16.849c31.75-4.8,60.598-15.584,83.742-39.212c26.123-26.675,53.092-52.573,63.666-90.196
		c0.68-2.514,2.787-4.37,4.896-5.968c14.238,4.241,9.26,15.382,7.264,23.854c-4.639,20.076-15.307,37.396-27.68,53.71
		c-39.066,51.746-88.818,81.893-155.906,78.26c-12.082-0.68-15.26-8.366-18.957-16.67c-16.023-35.709-39.406-66.162-66.877-93.683
		c-5.125-5.108-11.059-9.292-16.25-14.222c-16.768-16.022-33.99-18.009-55.266-7.524c-29.287,14.433-60.748,24.26-89.678,39.665
		c-14.301,9.697-29.465,15.956-47.223,11.741c-6.648-3.958-17.643-5.611-9.502-17.548c17.805,0.034,36,1.462,50.563-12.128
		c8.303-4.541,16.963-8.303,25.184-12.99c20.807-9.924,42.473-17.83,63.262-27.876c40.736-17.741,81.537-34.939,124.947-45.982
		c57.068-14.53,111.264-14.563,160.902,22.12c10.197,7.557,14.172,4.832,15.484-7.857c7.883-77.434-20.059-139.486-79.574-188.242
		c-16.15-13.233-31.605-27.519-50.156-37.614c-9.016-3.617-16.574-9.982-25.557-13.695c-21.115-9.454-42.568-17.571-66.049-18.503
		c-1.934,0.098-3.879,0.081-5.807,0.081c-6.877-0.681-13.721,2.214-20.596,0.316c-0.828-12.057,1.477-15.836,15.033-17.319
		c19.492-2.125,39.18-3.154,58.281,3.592c43.883,15.455,82.672,38.936,115.203,72.463c9.113,9.382,18.682,18.349,27.73,27.796
		c55.719,67.039,64.381,142.381,40.492,220.309c45.131-127.916-15.195-225.069-99.391-280.538
		c-42.65-32.36-92.629-47.807-143.258-61.574c-7.654-0.665-15.486-2.108-21.406,4.889c-8.238,12.3-16.703,24.438-23.092,37.825
		c-6.129,13.151-16.67,23.148-24.746,34.922c-4.994,6.438-10.994,11.903-16.51,17.83c-27.404,28.817-52.605,59.466-77.074,90.772
		c-10.996,9.94-11.531,22.784-9.764,37.639C696.361,443.002,728,387.866,768.525,339.46c8.012-9.098,15.795-18.381,23.807-27.463
		c3.793-4.249,9.08-12.738,15.939-2.36c-6.549,22.898-24.697,37.963-38.059,56.296c-40.77,56.029-82.412,111.457-122.031,168.263
		c-15.729,22.549-20.48,52.03-34.881,76.421c-5.48,9.308,5.125,18.6,3.098,28.507c-11.709,4.835-11.709,4.835-15.56-13.475
		c-34.022,49.85-81.156,81.083-134.443,104.094c-4.135,11.319-9.511,22.348-7.557,34.98c0.057,1.864-0.211,3.663-0.714,5.479
		c-5.457,8.677-8.563,19.087-18.065,24.908c-13.233,2.985-19.679-5.658-25.639-15.08c-5.262-9.94-5.992-22.525-17.157-28.897
		c-4.849,0.793-8.765,4.054-13.532,5.076C380.561,757.148,377.188,755.008,374.091,756.792z"/>
	<path fill="#1A1A1A" d="M1101.029,561.221c1.396-5.4,2.789-10.8,4.248-16.192c15.113,9.414,5.773,21.455,5.303,32.133
		c4.525-9.933,2.418-21.455,1.574-32.604c-1.945-25.257-8.074-49.866-12.811-74.636c-2.012-10.452-0.697-20.579-2.012-30.771
		c13.006-24.179,29.936-45.617,46.947-67.023c13.184-12.868,19.086-28.646,19.979-46.947c0.34-6.787-4.361-16.176,6.764-19.558
		c7.621,40.534-6.764,74.824-30.195,106.543c-21.602,25.654-26.238,56.093-11.256,84.058c23.125,43.023,17.189,82.591,2.01,126.067
		c-23.172,66.618-70.881,108.229-129.504,140.695c-36.65,20.303-74.727,37.785-113.938,52.639
		c-7.818,2.951-16.184,9.86-25.623,1.914c-2.139,20.043,4.834,39.502,3.959,59.48c-0.244,5.872,1.492,12.326-0.486,17.579
		c-13.916,36.715-18.033,77.759-40.869,110.256c-28.895,41.175-49.67,85.446-64.572,133.011c-2.4,7.621-0.42,20.254-11.385,20.22
		c-11.318-0.031-11.189-12.356-13.523-21.583c-0.893,7.702,3.211,16.638-4.912,21.211c-5.094,2.887-7.834-2.629-10.299-6.438
		c-3.779-10.282-5.416-20.985-7.168-31.64c-0.227-2.562,0.389-5.106,1.102-9.13c-1.49,4.363-1.863,7.297-1.814,10.348
		c0.146,6.939,1.654,16.036-6.957,17.658c-7.281,1.363-9.082-7.59-12.357-12.827c-0.535-5.042-5.334-10.038-0.242-15.145
		c13.215-14.466,16.848-33.312,23.172-50.921c1.801-5.352,4.266-10.282,9.357-13.33c25.914-19.396,50.531-39.536,44.4-77.319
		c0.211-9.31-1.654-18.229-4.734-26.953c-16.346-46.12-6.553-86.53,27.682-120.749c18.031-18.096,32.869-39.097,51.891-56.27
		c9.57-8.644,10.17-16.51,0.797-26.563c-23.027-24.648-48.438-45.894-79.33-60.001c-10.721-4.411-21.182-9.568-32.824-11.417
		c-16.053-3.275-32.465-4.217-48.424-8.011c-5.074-2.304-9.955-4.735-8.318-11.774c35.158-21.599,74.939-32.854,112.301-49.484
		c9.729-4.337,18.777,4.25,26.367,9.9c39.908,29.757,70.299,67.413,92.109,112.138c5.061,10.443,6.162,18.229,25.039,18
		c32.094-0.356,60.586-5.352,86.955-22.379c38.238-24.681,67.168-57.309,82.59-100.898c3.098-8.773,5.691-17.425-0.211-26.061
		C1093.764,579.578,1099.244,570.351,1101.029,561.221z"/>
	<path fill="#030303" d="M723.801,1150.238c2.367,4.054,6.113,9.341,7.428,0.452c1.168-7.896-1.363-16.346-2.303-24.842
		c12.049,0.422,11.156,9.567,12.162,16.833c0.777,5.448,1.93,11.806,7.266,12.583c7.588,1.137,6.064-6.485,7.215-11.189
		c13.768-55.104,38.027-105.146,72.504-150.229c6.617-8.693,10.867-17.805,9.68-28.898c-0.953-8.95,2.094-16.832,6.668-24.162
		c18.211-29.434,20.627-60.779,13.945-94.251c-2.609-13.2-0.439-27.341-0.439-45.926c6.877,22.283,18.666,14.822,29.531,10.313
		c51.326-21.209,102.002-43.863,148.738-74.238c64.186-41.725,94.088-104.807,106.932-176.995
		c3.797-21.373-11.285-40.768-17.871-61.023c-9.471-29.117-7.264-57.861,8.189-84.926c1.672-2.903,3.908-5.61,7.33-1.572
		c-23.512,38.903-16.395,74.36,7.381,111.456c45.695,71.271,41.951,126.951-8.047,195.125
		c-66.891,91.22-157.881,151.624-258.102,199.302c-22.814,10.815-32.627,26.368-35.221,48.682
		c-1.395,12.066-3.893,23.286-11.416,32.757c-40.188,50.597-63.813,108.909-80.111,170.694c-28.541-1.068-48.648-15.6-62.951-39.437
		c-2.676-4.574-3.018-7.947,3.857-7.687c2.5,4.313,4.996,8.627,8.045,13.979c6.584-5.742,2.563-12.683,4.477-18.099
		c1.814-5.32,3.34-10.703,6.227-19.914c0.68,9.566,1.055,15.113,1.459,20.66C719.406,1129.739,716.131,1141.319,723.801,1150.238z"
		/>
	<path fill="#3A3B3B" d="M1170.986,305.624c-5.025,21.755-2.383,45.796-19.393,63.91c-2.045,2.181-3.246,6.333-7.33,2.595
		c23.902-44.409,21.471-73.518-11.109-110.775c-8.123-9.268-6.973-13.833,2.58-19.014
		C1147.279,263.559,1168.816,279.167,1170.986,305.624z"/>
	<path fill="#2B2C2B" d="M1092.66,246.539c-1.264,1.508-2.496,3-3.793,4.516c-5.061-14.668-5.191-30.933-14.367-44.271
		c4.23-4.581,7.572-12.357,15.309-4.232c-0.164,0.843-0.326,1.662-0.486,2.505C1089.645,218.938,1104.971,231.644,1092.66,246.539z"
		/>
	<path fill="#3F3F3F" d="M118.494,175.495c18.317-5.312,36.634-10.622,54.934-15.941c13.897,4.986-0.122,14.968,5.343,23.53
		c17.765-3.762,28.777-21.155,45.95-27c14.295-6.787,26.068-18.99,43.055-19.906c37.849-6.309,75.788-8.522,113.921-2.959
		c7.054,1.03,14.19,1.897,19.809,7.078c1.395,0.016,2.806,0.049,4.216,0.081c1.906-0.446,3.917-1.346,4.646-3.057
		c7.508-17.555,19.411-17.887,33.859-8.952c7.971,4.021,15.941,7.986,23.912,12.008c0.17,0.617,0.648,1.63,0.421,1.857
		c-19.014,17.708-19.03,17.741,0.682,38.563c3.202,3.373,5.821,7.021,6.673,11.741c0.843,7.435-1.265,13.914-6.228,19.492
		c-6.227,3.625-11.108,7.112-11.343,16.16c-0.495,20.603-5.53,25.322-26.798,26.936c-29.044,2.222-56.377,10.046-81.391,24.739
		c-33.423,19.678-60.31,45.154-69.577,84.82c-2.344,10.897-6.941,20.814-14.409,29.076c-12.859,14.254-26.343,13.208-37.5-2.838
		c-2.011-2.886-4.119-4.759-7.452-5.465c-8.408-3.187-17.124-4.167-26.011-4.452c-7.087-0.21-14.06-1.126-17.319-8.959
		c-15.438-38.831-75.95-65.247-113.63-48.455c-9.632,4.281-23.927,7.241-19.727,25.274c1.378,5.911-5.181,12.438-12.422,3.584
		c0.097-15.86-4.703-32.466,7.07-46.542c6.876-8.506,16.525-14.732,20.944-25.298c4.662-6.487,12.024-10.792,15.162-18.527
		c5.06-4.257,10.095-8.49,15.162-12.739c2.441,0.032,4.776-0.478,7.086-1.216c11.077-8.846,12.974-20.701,11.189-33.755
		c0.154-1.897,0.9-3.503,2.23-4.865c3.965-0.762,2.473-4.703,3.965-6.875C120.051,194.111,112.218,183.887,118.494,175.495z"/>
	<path fill="#050505" d="M731.195,1001.272c-4.848-1.298-3.113-6.52-5.709-9.405c-14.318-15.73-19.881-15.764-31.979,1.297
		c-13.605,19.137-27.211,38.304-40.086,57.958c-14.256,21.827-22.023,45.634-20.043,72.229c0.582,7.687-0.391,15.664-1.801,23.286
		c-0.957,4.964-7.281,12.812-9.098,10.478c-7.51-9.666-23.19,16.996-25.947-6.649c-1.192-10.639-15.706-1.8-19.273-13.364
		c-8.076-26.172-9.105-50.887,3.754-75.796c11.822-22.896,31.282-40.054,44.837-61.59c4.119-6.551,9.342-12.453,10.834-21.599
		c-29.953-2.66-59.475-6.194-87.537-16.445c-6.195,14.661,0.244,26.789,3.997,39.1c4.022,13.2,8.271,26.399,5.068,40.314
		c-2.246,9.746-6.43,17.935-18.949,11.48c-7.955-5.107-10.281-10.688-1.492-17.223c4.516,0.552,9.462,1.802,10.346-5.076
		c0.333-2.61,0.495-5.463-0.681-7.783c-23.733-46.606-5.303-93.213,0.365-139.656c3.632-29.529,15.576-58.623,1.573-88.543
		c-2.011-4.249-0.892-9.146,4.751-11.155c14.814,1.978,15.893,14.772,19.444,25.216c2.473,7.216,3.357,14.871,3.503,22.556
		c-1.03,11.272-3.648,22.218-5.563,33.311c-2.392,11.853-6.227,23.383-7.541,35.465c-1.824,11.676-4.151,23.239-4.565,35.076
		c-5.546,14.596,4.322,16.314,14.7,17.563c3.235,1.427,6.057,3.747,9.746,4.054c20.012,5.237,40.883,3.406,61.121,7.346
		c16.395,3.212,25.703-4.865,26.838-21.697c-2.984-10.864-8.563-20.756-11.709-31.524c-2.74-8.595-6.518-17.287-6.551-26.062
		c-0.064-15.178-7.654-23.481-20.758-28.523c-0.746-2.077-0.371-3.908,1.037-5.611c10.963-4.005,18.602-9.73,18.975-23.481
		c0.178-6.454,0.648-21.974,15.438-9.697c5.563,25.588-2.172,52.169,5.871,77.546c1.006,3.098,1.898,6.229,2.82,9.325
		c3.941,13.72,9.666,26.612,18.682,37.849c8.514,8.644,14.938,19.087,24.602,26.709c5.076,4.8,11.693,8.271,15.211,14.271
		C739.451,989.662,744.428,997.899,731.195,1001.272z"/>
	<path fill="#303030" d="M731.195,1001.272c7.264-6.975,5.645-13.524-1.816-18.681c-5.254-3.633-10.443-7.04-13.557-12.813
		c-5.416-57.731-1.59-114.813,11.447-171.277c9.65-41.71,15.066-83.564,6.244-126.198c-0.682-3.309-0.146-6.486,2.094-9.211
		c12-0.162,21.469,6.454,31.426,11.709c14.109,10.152,9.537,24.552,7.85,37.688c-5.611,44.012-17.643,86.888-23.4,130.833
		c-3.811,29.158-4.896,58.478,2.059,87.49c3.568,14.869,9.859,28.282,21.293,38.821c0.18,37.201-19.021,68.905-47.58,78.602
		c-5.951-7.377-1.539-14.658,0.859-21.567c2.531-7.281,2.889-14.726,3.439-22.218
		C731.648,1003.382,731.553,1002.311,731.195,1001.272z"/>
	<path fill="#070707" d="M538.916,1036.398c-7.021,5.544-1.492,10.8,0.365,16.167c-11.975,16.915-39.519,14.791-51.746-4.671
		c-13.185-20.984-14.409-44.026-9.366-67.753c0.787-3.81,2.027-7.507,3.276-11.221c10.792-32.159,10.727-32.094-15.114-53.838
		c-8.765-7.347-17.068-15.277-27.082-24.293c-2.643,20.725,2.304,39.438-1.678,57.778c1.03,3.131,2.222,7.494-1.127,8.628
		c-4.93,1.688-6.625-3.178-7.322-6.909c-2.562-13.46-3.47-27.307-3.94-40.801c-0.746-22.54-7.589-41.772-20.206-60.066
		c-6.974-10.087-12.56-21.406-15.495-33.584c-0.333,0-0.495-0.795-0.446-0.551c2.319,9.926,2.14,19.979,0.94,30.017
		c-0.446,1.929-1.241,3.731-2.303,5.4c-1.443,1.734-3.137,2.109-5.148,0.988c-2.424-24.875-6.511-49.62-1.63-74.79
		c1.379-7.055,1.379-15.421-6.827-20.043c2.027-3,5.067-3.373,8.327-3.243c11.757,6.843,10.021,19.979,14.327,30.324
		c7.305,24.877,19.33,47.433,33.779,68.823c1.078,1.459,2.051,2.982,3,4.54c13.468,20.821,30.374,38.335,49.988,53.451
		c7.419,5.708,6.657,0.128,7.119-4.379c0.219-9.471-0.446-18.926,0.665-28.282c0.714-10.542,8.667-21.31-0.875-31.589
		c-1.395-1.071-2.514-2.369-3.356-3.893c-0.365-1.734-0.163-3.438,0.495-5.092c7.159-8.303,7.629-18.78,9.332-28.867
		c3.325-8.365,2.563-17.805,6.633-25.962c5.943-7.557,12.333-15.421,22.5-15.956c11.303-0.682,11.806,4.783,4.711,12.211
		c-11.773,10.54-19.744,22.735-17.052,39.568c-0.268,1.913-0.868,3.747-1.711,5.447c-5.514,20.288-3.268,40.673-1.249,61.039
		c3.325,18.684-0.43,36.39-7.402,53.646c-12.406,30.583-10.946,62.271-9.933,94.152c3.454-0.064,3.909-0.938,4.387-2.416
		c2.31-7.119-1.33-19.136,7.524-20.254c8.571-1.054,8.335,11.449,12.333,17.739c2.424,3.797,3.405,8.368,4.751,13.624
		c2.959-5.222,3.721-10.478,7.954-13.688c1.808-0.973,3.738-1.295,5.749-0.973C540.692,1028.907,541.989,1032.02,538.916,1036.398z"
		/>
	<path fill="#222222" d="M390.527,812.188c11.757,19.297,22.119,39.372,33.625,58.833c10.63,17.969,4.005,40.509,8.505,60.649
		c1.379,6.193-1.565,13.72,0.828,19.167c2.659,6.098,2.392-1.75,4.086-2.301c3.34,5.416,3.073,11.319,2.586,17.287
		c2.66,18.471-4.532,35.353-8.7,52.702c-1.208,5.061-3.365,9.892-6.908,13.85c-4.095,4.524-9.163,8.334-15.357,5.677
		c-7.776-3.308-3.989-9.861-2.554-15.147c2.984-11.286,7.371-22.444-0.697-33.47c-5.084-21.827,0.526-44.37-5.068-66.359
		c-2.229-8.755-3.608-17.87-6.511-26.563c-2.125-7.331-1.962-15.145-4.597-22.395c-2.23-8.823-0.818-17.628-0.049-26.434
		C391.84,835.896,383.367,823.864,390.527,812.188z"/>
	<path fill="#0C0C0C" d="M409.492,993.229c2.408-0.034,6.754-4.77,6.527,1.784c-0.438,13.426-1.168,26.919-9.819,40.152
		c13.151,1.264,17.092-6.033,19.549-15.243c4.832-18.034,9.632-36.067,14.449-54.099c5.262,12.276,9.657,24.631,0.064,36.876
		c-2.578,3.276-1.126,5.838,0.349,8.82c3.47,7.039,11.043,12.066,3.933,22.524c-9.511,13.995-22.801,21.472-37.695,25.185
		c-9.779,2.4-33.771-33.146-32.709-46.929c0.591-7.752,0.989-16.476,4.759-22.865c17.522-29.871,9.09-60.066,4.176-90.847
		c-2.433-15.291-0.503-31.28-0.536-46.963c0.917,0,1.809,0,2.725,0c9.13,12.486,6.811,27.309,8.497,41.271
		c1.03,9.358,2.165,18.749,4.987,27.795c7.735,22.233,5.481,43.801-4.29,64.836c-5.822,12.648-10.192,25.46-3.762,39.195
		c1.557,3.891,2.983,5.82,5.246,0.211C400.24,1014.277,400.792,1002.019,409.492,993.229z"/>
	<path fill="#161616" d="M731.52,1004.45c10.541,15.764-4.346,29.062-4.281,43.785c-2.432,3.146-4.85,6.34-7.266,9.471
		c-7.135,18.229-13.686,36.715-24.322,53.321c-5.451,4.28-0.359,8.043,0.551,12.048c-3.277,1.557-3.244,4.784-3.861,7.687
		c-6.453-7.396-5.674-16.167-2.527-24.064C703.367,1072.495,717.559,1038.539,731.52,1004.45z"/>
	<path fill="#181818" d="M75.285,262.115c1.824,9.666-5.927,12.9-11.692,17.506c-3.438,10.127-12.503,15.551-19.112,23.028
		c-12.771,7.873-10.548,24.859-20.846,34.225c-1.16,2.725-2.335,5.465-3.519,8.189c-9.463-15.56-2.741-29.692,6.997-40.671
		C41.254,288.451,56.887,273.491,75.285,262.115z"/>
	<path fill="#252525" d="M94.81,254.291c-1.443-1.639-2.903-3.268-4.362-4.915c5.311-15.608,10.638-31.216,15.941-46.825
		c1.524,2.343,3.033,4.662,4.565,6.989c-0.397,0.682-0.6,1.427-0.6,2.206C110.734,227.955,105.553,242.136,94.81,254.291z"/>
	<path fill="#3E3E3E" d="M110.54,754.262c-4.816-2.691-9.235-5.804-11.546-11.091c-10.606-17.319-28.176-30.195-32.044-51.797
		c-1.119-6.259-4.087-12.193-3.008-18.812c3.738-12.356,16.095-11.642,24.925-16.2c10.379-5.302,14.417-9.826,2.725-19.215
		c-15.414-12.39-14.328-17.125,3.389-30.715c17.515,0.487,23.247,14.497,30.682,26.628c2.83,4.638,3.495,12.974,11.514,10.523
		c6.195-1.914,7.136-8.644,7.589-14.675c0.446-5.855-1.662-11.676-0.154-17.547c18.47-20.409,40.306-36.73,63.398-51.407
		c15.998-10.151,32.862-19.881,44.92-34.289c27.519-32.863,47.628-67.923,2.076-119.549c6.875-11.092,16.014-18.251,28.882-10.378
		c38.887,23.798,77.247,24.146,115.721-0.6c2.181-1.395,4.8-2.052,7.273-2.838c15.729-2.838,28.532-10.63,39.292-22.387
		c4.468-4.881,7.857-12.455,16.874-10.338c7.751,3.235,9.795,9.94,10.225,17.384c1.346,23.278-6.073,43.573-22.038,60.43
		c-5.871,6.227-12.779,11.701-22.136,5.457c-9.26-6.243-16.038-16.29-28.161-18.146c-8.222-1.233-3.421,3.616-3.122,6.405
		c-0.365,14.603,4.735,28.298,7.111,42.479c-11.773,31.355-36.455,53.507-56.563,78.877c-4.71,5.984-13.216,4.946-19.906,7.273
		c-13.817,2.772-24.3,10.111-31.022,22.655c-7.428,9.875-8.157,21.981-11.043,33.381c-5.563,15.957-19.793,23.937-31.963,33.357
		c-35.773,27.698-70.266,56.336-89.872,98.677c-1.079,2.434-3.405,3.828-5.83,4.995C142.738,755.657,126.764,759.613,110.54,754.262
		z"/>
	<path fill="#3F3F3F" d="M511.583,818.058l-0.219,0.099c-1.176-16.315,10.2-27.86,15.795-41.58c1.614-1.751,4.63-3.632,4.516-5.253
		c-0.316-3.877-3.6-1.525-5.659-1.363c-10.201,0.747-12.244,14.563-23.035,14.433c-14.247,0.195-15.779-12.908-22.055-21.049
		c-1.905-5.092-5.027-9.503-8.384-13.783c-2.821-4.119-4.313-8.628-3.771-13.688c1.459-8.044,7.525-10.087,14.384-10.638
		c42.439-3.568,77.832-24.422,112.933-46.023c11.084-6.811,20.782-15.925,33.479-19.946c17.529,3.099,32.189-4.929,47.092-12.064
		c1.363,3.892,4.135,6.422,7.867,7.979c22.961,16.265,29.221,41.335,32.27,66.715c2.805,23.287,1.816,46.994-3.957,70.185
		c-7.947,31.751-13.979,63.91-18.713,96.295c-1.232,8.48-2.012,17.285-12.324,20.255c-2.385,0.127-4.461-0.616-6.229-2.224
		c-10.93-29.093-3.844-60.357-10.621-89.968c-7.59,4.296-8.807,4.426-7.898,12.081c2.158,18.52-4.799,26.545-23.578,23.271
		c-12.342,4.881-22.492-5.271-34.217-4.93c-9.649-2.546-21.584-1.038-25.217-14.19c-6.584-15.925-2.278-36.195-19.184-47.984
		c-12.171-0.47-14.944,7.639-12.519,16.605c14.375,53.126-4.055,104.84-7.176,157.123c-0.714,12.342,3.608,24.42,0.153,36.502
		c-4.848,10.768-0.186,22.737-4.272,33.633c-4.517,8.271,0.535,24.844-8.198,25.136c-10.719,0.358-3.641-16.247-9.17-23.334
		c-4.152-5.352-5.611-11.368-8.62-17.708c-2.457,10.685-0.461,22.296-6.794,33.243c-11.652-6.553-10.063-17.919-10.938-28.381
		c-3.122-37.248,6.941-72.309,18.163-107.045c2.514-7.768,1.727-15.42,2.149-23.141C507.91,864.146,504.578,840.795,511.583,818.058
		z"/>
	<path fill="#801517" d="M931.973,330.095c49.963,31.257,93.504,68.937,119.498,123.237c18.455,38.62,15.859,80.183,13.459,121.219
		c-0.826,13.719-8.916,8.684-16.051,3.251c-20.404-15.608-42.393-27.909-68.078-32.862c-46.703-9.017-90.619,4.103-133.982,17.983
		c-29.691,9.487-58.379,22.371-87.439,33.747c-8.074-9.146-1.979-16.938,2.416-24.843c11.24-20.222,27.064-37.444,43.541-52.606
		c46.217-42.463,75.861-95.815,105.15-149.801C917.588,356.284,922.031,341.673,931.973,330.095z"/>
	<path fill="#1D1D1D" d="M472.363,191.289c-2.498-2.967-4.436-6.771-7.541-8.716c-10.881-6.844-20.66-14.579-19.5-28.825
		c1.151-14.352,17.158-5.498,22.857-13.354c20.984,4.516,36.844,19.33,55.81,27.933c9.114,4.119,7.938,12.616,6.21,20.506
		c-1.775,7.889-7.508,15.024-5.051,24.146c10.249-1.095,7.378-11.911,13.833-16.079c46.614,57.009,76.396,121.575,90.683,193.723
		c12.762,64.469,11.432,127.284-19.703,186.701c-31.071,59.385-74.434,106.543-137.768,132.716
		c-5.465-6.844-6.341-15.179-7.719-23.352c6.511-10.509,12.998-21.032,19.493-31.542c13.451-33.211,39.236-58.428,57.487-88.647
		c33.066-54.739,40.655-114.019,34.396-175.828c-3.187-31.249-20.011-57.82-35.806-84.269
		c-9.698-16.257-21.284-31.468-27.236-49.785C504.894,231.425,485.928,213.043,472.363,191.289z"/>
	<path fill="none" d="M1101.029,561.221c0.26,9.065,0.52,18.13,0.779,27.212c-28.039,70.153-70.121,125.109-150.133,139.268
		c-18.926,3.373-31.883-1.119-40.834-20.206c-22.865-48.942-58.412-87.115-107.547-116.516
		c57.988-20.831,112.607-43.696,174.002-34.696c19.883,2.927,37.297,12.057,54.195,21.673c16.104,9.163,18.324,26.239,18.391,42.893
		c0.064,8.304-0.813,16.233,9.324,18.585c10.818,2.513,15.553-5.286,18.584-13.411
		C1085.885,604.576,1093.311,582.854,1101.029,561.221z"/>
	<path fill="#1A1A1A" d="M401.651,474.3c-2.984-14.246-15.292-27.666-3.803-43.177c45.349,35.604,64.744,85.04,74.329,139.673
		c1.679,9.583,2.505,19.297,4.038,28.898c8.847,55.875-22.5,90.188-62.855,121.033c-51.496,39.341-108.286,60.39-173.565,60.974
		c-20.587,0.195-41.499,4.768-62.215,2.237c-25.095-3.08-46.996-14.595-67.04-29.66c17.068-1.395,33.787-6.746,51.18-4.913
		c22.963-11.351,48.536-7.848,72.698-12.454c17.288-3.293,34.801-5.367,52.104-8.807c22.152-4.46,42.795-12.729,59.32-28.378
		c18.333-17.353,41.328-29.61,54.131-53.094c25.906-47.538,24.649-96.293,8.424-145.948
		C405.551,491.952,402.9,483.333,401.651,474.3z"/>
	<path fill="#2D2E2D" d="M515.516,254.274c13.703,23.481,27.187,47.06,41.133,70.396c35.409,59.198,32.247,122.135,15.333,185.014
		c-15.179,56.401-52.996,100.381-87.966,145.462c1.378-10.442,2.772-20.919,4.151-31.379c4.273-26.132,2.66-52.022-4.897-77.279
		c-3.997-13.452-3.187-24.828,4.338-37.111c9.875-16.127,18.876-33.033,24.503-51.269c4.703-15.203,13.719-26.546,27.09-34.735
		c7.103-20.312,3.073-27.666-19.728-35.814c-10.411-30.528-8.822-62.393-9.803-93.877
		C509.207,280.496,505.769,266.234,515.516,254.274z"/>
	<path fill="#EF3A38" d="M833.943,298.416c1.152-0.454,2.4-0.502,3.568-0.097c13.443,11.716,26.205,23.895,29.35,42.69
		c-12.438,24.771-31.555,44.555-48.973,65.661c-60.553,73.38-128.143,140.8-184.203,217.958
		c-16.412-3.276-11.061-14.496-8.545-24.251c11.35-43.679,33.178-81.95,59.48-118.315c35.629-49.387,73.072-96.999,117.813-138.563
		c5.645-5.23,12.924-8.554,8.904-21.6C808.027,311.454,822.639,303.062,833.943,298.416z"/>
	<path fill="#303030" d="M515.516,254.274c-2.919,44.555,5.165,88.793,3.908,133.284c-15.462-0.105-30.357,1.338-42.431,14.927
		c29.612,3.665,30.357,4.184,21.503,33.495c-5.595,18.577-13.086,36.512-23.563,53.134c-5.513,8.749-9.713,10.427-14.416,0.332
		c-7.971-17.254-19.695-31.881-31.396-46.566c31.793-6.688,50.977-57.188,31.363-82.607c-3.317-8.57,2.408-15,5.448-21.941
		c8.749-20.027,14.084-40.549,10.792-62.62c0.203-1.889,0.502-3.803,1.362-5.53c13.687-27.316,13.306-30.268-6.608-51.69
		c-1.824-2.246-3.089-4.703-3.234-7.622c1.378-6.527,2.756-13.054,4.119-19.582C493.615,207.579,508.048,228.555,515.516,254.274z"
		/>
	<path fill="#911A1D" d="M931.973,330.095c-9.064,34.59-30.082,63.317-46.428,94.324c-24.959,47.206-62.938,83.929-98.531,122.629
		c-12.975,14.117-28.137,27.682-27.635,49.623c-20.334,10.68-41.092,20.336-63.082,27.05c-8.01-15.081,2.32-26.133,9.049-37.396
		c21.473-35.985,55.006-60.415,85.479-87.764c18.404-16.5,38.107-31.614,55.41-49.396c13.881-14.271,24.424-30.455,27.682-50.604
		c1.021-31.404,14.871-57.317,34.477-80.734C916.289,321.913,924.141,326,931.973,330.095z"/>
	<path fill="#4D4D4D" d="M255.921,407.432c27.252,12.471,38.093,52.793,24.179,86.069c-11.579,27.681-32.036,47.335-56.726,62.117
		c-27.503,16.395-50.831,38.076-76.915,56.166c-9.933-3.421-17.822-8.44-16.347-20.806c25.695-22.104,53.742-41.239,80.078-62.556
		c10.363-8.376,18.795-18.154,25.541-29.312c10.557-17.538,15.868-35.806,4.265-55.331c-11.943-20.06-31.152-26.522-52.687-28.314
		c-8.806-0.762-18.269,3.406-25.939-4.2c6.374-9.316,11.757-16.444,26.02-9.479c11.506,5.595,25.176,2.886,33.593-9.884
		c0.859-0.267,1.727-0.535,2.586-0.827C232.675,399.858,244.31,403.645,255.921,407.432z"/>
	<path fill="#D82927" d="M877.273,399.656c-2.643,34.176-27.73,53.158-50.109,73.947c-40.41,37.599-87.648,68.15-118.314,115.73
		c-6.846,10.573-12.115,21.543-12.553,34.387c-7.783,4.119-15.52,8.238-23.271,12.357c-4.523,1.297-7.506-0.877-9.842-4.476
		c-2.369-14.563,7.166-24.553,14.336-35.045c18.713-27.535,41.092-52.225,63.404-76.769
		c43.396-47.725,86.355-95.734,122.646-149.273c3.131-4.598,4.914-13.298,14.223-9.301
		C879.803,374.082,880.064,386.893,877.273,399.656z"/>
	<path fill="#222222" d="M703.918,289.577c14.563-4.629,27.941,0.219,41.32,5.036c11.58,4.152,10.477,10.03,1.865,16.306
		c-5.238,3.851-10.719,7.524-16.477,10.492c-27.941,14.498-54.762,30.439-75.779,54.601c-6.26,7.257-10.961,10.995-14.398-3.356
		c-6.424-26.547-15.098-52.542-22.865-78.756c9.598-5.716,20.35-3.673,30.662-4.5C666.832,287.056,685.367,286.261,703.918,289.577z
		"/>
	<path fill="#6F7070" d="M67.566,505.55c2.635-10.379,5.279-20.758,7.93-31.168c23.879-19.623,48.642-37.809,79.332-45.398
		c21.033-5.214,41.579-5.101,60.074,8.424c17.409,12.73,22.355,30.236,14.384,50.166c-6.446,16.184-16.759,29.539-30.17,40.469
		c-24.828,20.254-50.417,39.568-76.356,58.379c-8.7,1.646-16.208-0.211-21.738-7.622c-3.138-9.859,4.086-14.213,10.362-18.778
		c17.936-13.054,35.652-26.401,53.255-39.885c10.93-8.392,21.074-17.684,27.065-30.438c7.727-16.395,1.362-28.744-16.671-30.884
		c-16.67-1.979-32.384,2.335-46.744,11.035c-14.562,8.837-27.884,19.184-39.949,31.29c-5.003,5.027-10.039,13.419-19.614,6.989
		C68.312,507.252,67.947,506.401,67.566,505.55z"/>
	<path fill="#5E5F5F" d="M122.313,585.498c17.619-24.179,45.366-36.253,66.95-55.77c12.657-11.424,25.273-22.119,32.797-38.043
		c14.385-30.398-1.946-58.234-36.098-60.536c-25.809-1.751-48.471,6.884-70.145,20.075c-13.217,8.052-24.26,20.02-40.307,23.158
		c1.646-2.668,3.26-5.344,4.89-8.052c5.943-24.276,27.397-31.784,45.982-42.374c12.633-1.597,23.927-6.827,35.003-12.673
		c19.744,0.536,39.366-3.073,58.647,7.257c25.744,13.784,37.996,39.406,27.917,66.74c-7.638,20.659-20.725,37.144-38.806,50.084
		c-26.32,18.795-49.388,42.09-78.65,56.839C124.202,594.311,122.54,590.775,122.313,585.498z"/>
	<path fill="#FBFBFB" d="M664.854,631.698c2.725,1.458,5.449,2.919,8.172,4.379c-14.398,15.081-30.908,20.174-50.514,10.703
		c-4.768-0.779-7.541-3.537-8.189-8.368c-8.205-13.72-7.41-25.298-0.631-41.377c45.744-108.521,127.996-192.109,192.813-287.511
		c1.332-3.974,3.957-6.641,8.012-7.89c5.934-4.281,12.357-5.465,19.395-3.203c-7.654,7.955-15.275,15.941-22.768,23.758
		c4.865,6.794,9.357-3.049,15.033,1.565c-6.26,11.44-16.461,19.476-25.59,28.192c-55.297,53.158-102.73,112.543-142.332,178.22
		c-14.678,24.26-21.504,51.512-31.363,77.628c-2.902,7.687,0.227,12.405,6.422,16.249
		C644.373,624.433,655.398,624.888,664.854,631.698z"/>
	<path fill="#212121" d="M614.322,638.412c2.74,2.789,5.467,5.578,8.189,8.368c-4.928,8.27,3.504,9.016,7.055,12.485
		c-41.596,35.775-87.545,62.759-142.924,70.478c-6.365,0.908-13.752-1.006-14.4,8.789c-8.952,0.39-6.592-9.405-11.441-12.714
		c35.701-14.432,69.958-31.443,97.672-58.898c14.189-14.092,27.22-29.335,40.817-44.107
		C606.522,625.682,600.474,641.752,614.322,638.412z"/>
	<path fill="#3E3E3E" d="M814.547,301.619c-2.691,2.643-5.352,5.246-8.025,7.889c-9.568-3.243-11.434,5.724-14.951,10.443
		c-5.984,7.906-12.082,15.374-20.271,21.009c-5.48,4.167-9.357,17.603-18.146,3.219c8.514-11.506,16.979-23.011,25.459-34.525
		c8.629-11.636,17.32-23.198,23.32-36.495c6.131-7.589,16.898-5.133,23.869-10.946c51.473,14.181,102.781,28.663,145.658,62.717
		c20.174,13.468,34.801,32.53,50.662,50.385c4.184,4.703,9.389,9.6,4.379,16.922c-34.607-33.496-68.906-67.023-113.891-87.399
		c-25.574-11.587-51.406-18.333-79.316-14.928C825.705,290.842,814.986,288.548,814.547,301.619z"/>
	<path fill="#1B1B1B" d="M1026.5,392.253c-8.725-19.266-25.17-32.482-38.174-48.407c-5.371-6.511-11.273-12.6-16.867-18.884
		c35.223,18.025,60.959,46.704,81.99,78.715c45.602,69.326,45.779,143.078,16.039,218.454c-0.957,2.366-2.35,4.571-3.908,6.566
		c-0.615,0.828-2.27,0.86-3.859,1.331c-5.822-5.579-0.229-11.012,1.232-15.585c24.422-76.493,19.654-148.446-31.979-213.539
		C1029.027,398.432,1027.99,395.18,1026.5,392.253z"/>
	<path fill="#FFFFFF" d="M652.869,442.768c-15.924-39.439,5.969-61.81,30.682-81.189c22.979-18.032,48.262-33.211,72.537-49.646
		c1.152,1.127,2.334,2.222,3.535,3.333C724.256,357.476,688.902,399.712,652.869,442.768z"/>
	<path fill="#232323" d="M753.152,344.195c7.752,8.416,12.098-2.012,18.131-3.252c-23.742,33.325-47.191,66.788-71.191,99.861
		c-15.26,21.041-31.363,41.466-50.693,66.861c1.574-23.036-7.686-42.269,11.547-56.928c23.449-18.779,39.975-43.801,59.061-66.504
		c6.617-7.873,14.158-15.146,19.572-24.033C744.104,354.874,748.629,349.53,753.152,344.195z"/>
	<path fill="#F7F8F8" d="M67.209,671.267c2.611,19.784,10.679,37.265,21.958,53.546c3.9,5.645,10.76,9.99,9.827,18.358
		c-34.307-25.46-50.044-61.461-54.731-102.197c-5.416-47.06-2.027-93.31,23.279-135.424l-0.973,1.07
		c7.533,6.94,5.263,15.575,3.73,23.806c-3.454,18.648-5.311,37.419-5.773,56.328c-0.665,5.798-2.579,11.408-6.146,15.827
		c-5.976,7.354,2.757,9.22,4.435,13.679C65.652,634.488,67.923,652.779,67.209,671.267z"/>
	<path fill="#191918" d="M539.167,423.373c-23.481,28.16-30.325,65.23-50.636,94.988c-5.944,8.7-6.179,16.119-3.268,25.387
		c8.271,26.335,10.257,53.036,2.887,80.02c1.995-33.471-3.519-66.09-12.868-97.907c-3.535-12.009,0.146-19.605,6.924-28.193
		c18.617-23.578,29.06-50.255,29.596-80.653c0.097-5.732-3.844-14.603,5.643-16.208c7.387-1.249,10.809,5.756,14.166,11.441
		C533.864,416.115,536.622,419.683,539.167,423.373z"/>
	<path fill="#A39073" d="M165.4,45.706c11.376-6.893,13.274,4.8,15.609,9.786c9.406,20.044,17.409,40.769,29.465,59.45
		c4.151,6.389,0.908,9.381-3.438,12.794c-22.833,17.854-48.025,30.674-76.737,36.058c0.268-14.927,15.706-15.495,22.679-24.082
		c24.082-15.243,20.692-38.49,17.392-61.339C168.806,67.476,164.241,57.033,165.4,45.706z"/>
	<path fill="#A21E21" d="M877.273,399.656c-1.898-13.095,3.764-26.984-3.957-39.52c-5.936-5.133-7.75-11.952-7.979-19.395
		c-9.275-14.149-18.535-28.281-27.826-42.422c25.848-1.411,48.666,8.035,70.914,19.508c-2.676,6.576-4.119,14.084-8.287,19.525
		C885.967,355.903,881.473,377.658,877.273,399.656z"/>
	<path fill="#F3F3F3" d="M52.355,355.587c2.4-15.973,16.436-12.616,27.146-13.8c12.008-1.313,22.371-0.843,14.611,17.003
		c-6.787,15.592-2.554,30.689,7.987,43.938c2.692,3.389,7.654,7.127,3.089,11.425c-3.6,3.373-7.767-0.081-12.105-1.889
		C68.207,401.748,56.004,382.587,52.355,355.587z"/>
	<path fill="#A28D6F" d="M500.637,57.535c21.592,28.938,27.633,61.915,27.171,100.478c-20.474-10.743-38.141-20.027-55.833-29.295
		c0.073-2.651,0.235-6.275,2.498-7.086c26.651-9.446,20.984-30.025,17.498-49.922C492.667,65.619,489.999,57.479,500.637,57.535z"/>
	<path fill="#222222" d="M224.72,156.1c-9.852,13.541-24.827,20.757-37.866,30.292c-3.916,2.886-9.462,7.102-14.279,3.122
		c-5.578-4.614-1.929-10.646,0.187-16.192c1.655-4.362,7.087-8.903,0.666-13.768c16.784-11.06,35.701-19.03,49.314-34.704
		c4.882-5.611,11.976-5.327,18.236-3.122c3.333,1.176,7.054,4.436,8.27,7.622c1.744,4.768-3.486,5.879-6.713,7.825
		c-7.257,4.378-15.008,8.205-21.406,13.63C216.628,154.656,221.81,155.386,224.72,156.1z"/>
	<path fill="#EF3835" d="M416.83,777.257c6.414,7.039,10.095,18.26,23.182,14.888c5.384-1.784,9.349,1.118,10.881,5.336
		c6.105,16.718,16.817,31.686,18.86,49.93c-4.687,8.644-12.69,10.232-21.52,10.103c-23.149-9.941-40.533-44.173-38.312-75.471
		C411.267,779.075,412.93,776.545,416.83,777.257z"/>
	<path fill="#D52927" d="M468.123,846.891c-12.251-16.768-13.2-39.342-28.111-54.746c6.641-7.184,6.228-19.103,16.225-23.968
		c3.535-4.444,7.792-7.006,13.703-5.092c3.049,1.459,4.898,3.939,6.041,7.07c1.93,19.298,1.582,39.081,12.536,56.53
		c2.408,3.812,2.91,8.675-0.763,12.747l0.551,0.907C483.188,847.507,477.771,853.734,468.123,846.891z"/>
	<path fill="#222222" d="M401.521,140.313c-44.441-5.667-89.142-3.39-133.729-4.119c38.312-13.289,77.547-17.335,117.586-10.776
		C392.935,126.642,403.249,127.72,401.521,140.313z"/>
	<path fill="#535353" d="M126.359,423.956c-13.963,15.608-35.117,23.409-45.999,42.374c-13.598-4.614-6.803,13.086-16.93,13.516
		c-8.141-9.081-2.595-21.187-3.811-32.214c-0.957-0.932-1.411-1.954-1.371-3.089c0.033-1.176,0.179-1.775,0.414-1.775
		c14.612-2.108,24.739-12.406,36.333-20.028C105.472,423.137,115.916,423.543,126.359,423.956z"/>
	<path fill="#2E2E2E" d="M1097.316,439.151c7.734,46.809,27.795,92.458,15.277,145.957c-7.041-15.908,1.197-29.288-7.316-40.079
		c-4.053-27.852-8.203-55.647-12-83.548C1092.24,453.811,1092.76,446.019,1097.316,439.151z"/>
	<path fill="#F5F6F4" d="M118.162,143.629c2.489-27.26,13.346-51.39,27.998-74.045c15.211,7.476,12.998,21.146,10.03,33.301
		c-5.084,20.773-15.73,38.157-37.282,46.161C116.816,147.521,116.564,145.688,118.162,143.629z"/>
	<path fill="#AC9A7F" d="M425.035,725.852c8.149-7.249,16.306-14.465,27.317-24.228c-0.284,29.255-8.141,53.839-16.273,79.963
		c-9.787-6.39-11.911-15.567-14.619-24.356C424.354,746.998,426.511,736.618,425.035,725.852z"/>
	<path fill="#A9977D" d="M133.932,792.987c-4.395-3.925-5.992-8.983-6.608-16.946c15.381,8.174,29.676,15.422,45.917,16.574
		c4.614,0.341,6.292,2.108,5.765,7.361c-0.981,9.585-0.551,19.362-0.916,28.979c-0.187,4.54-0.203,10.378-4.833,11.887
		c-5.514,1.769-9.284-2.596-11.644-7.557C154.008,818.772,151.567,800.674,133.932,792.987z"/>
	<path fill="#D4C9BB" d="M118.162,143.629c0.576,1.216,1.127,2.424,1.711,3.657c1.411,1.459,3.884,3.17,5.027,2.092
		c18.016-16.889,33.511-35.474,30.454-62.271c-1.111-9.811-1.224-19.378-0.681-29.125c1.03-3.835,3.503-6.414,6.958-8.189
		c2.959-0.665,5.148,0.43,5.635,3.421c5.247,31.736,9.098,63.301-13.354,90.983c-6.56,8.108-17.968,10.362-23.612,19.582
		C111.618,167.629,111.618,167.629,118.162,143.629z"/>
	<path fill="#444444" d="M95.028,422.74c-8.473,12.008-15.762,26.036-34.655,20.077c-7.792-8.684-6.681-19.938-8.586-30.317
		c1.728-8.271-5.116-16.589,0.146-24.827C62.433,404.123,77.758,414.64,95.028,422.74z"/>
	<path fill="#F7F8F7" d="M439.614,104.628c9.746-14.271,19.508-28.549,29.279-42.828c9.794-0.251,11.741,7.022,11.919,14.133
		c0.381,14.943-1.046,29.603-14.813,39.438C454.541,118.339,446.701,112.444,439.614,104.628z"/>
	<path fill="#C4B6A3" d="M153.911,144.196c7.97-24.763,14.992-49.671,11.838-76.137c-0.746-6.243,2.027-13.233-4.119-18.251
		c1.264-1.378,2.497-2.741,3.77-4.103c10.816,21.373,13.549,44.222,11.838,67.736C176.144,128.621,167.014,137.985,153.911,144.196z
		"/>
	<path fill="#EAE5E0" d="M154.673,57.981c10.582,37.015,0.154,68.596-24.908,96.416c-2.125,2.335-4.914,5.408-8.23,3.47
		c-4.087-2.409-2.149-6.827-1.662-10.565c31.711-29.838,41.546-49.533,26.287-77.718C147.205,64.403,151.122,61.313,154.673,57.981z
		"/>
	<path fill="#ECECEC" d="M145.657,392.204c-1.792-1.662-3.486-3.422-5.392-4.93c-7.143-5.732-8.586-13.152-4.589-20.847
		c3.503-6.722,9.697-10.727,17.773-8.684c6.754,1.711,11.676,6.017,12.406,13.37c0.859,8.766-2.79,15.179-11.295,18.251
		c-3.041,1.095-6.243,1.695-9.381,2.505L145.657,392.204z"/>
	<path fill="#E0E1E0" d="M739.578,360.201c-19.086,34.298-45.422,62.742-72.957,90.221c-1.021,1.013-3.762,0.267-5.676,0.332
		C685.854,419.44,709.336,386.876,739.578,360.201z"/>
	<path fill="#2A2A2A" d="M177.887,372.095c8.076,5.595,17.303,4.152,26.173,3.9c8.035-0.234,15.309,0.487,20.279,7.792
		c2.505,4.363-0.649,6.276-3.592,8.279l0.251-0.13c-5.036,1.03-10.046,2.076-15.082,3.089
		C186.539,398.877,179.006,392.699,177.887,372.095z"/>
	<path fill="#D1C8B9" d="M500.637,57.535c-6.94,3.682-4.03,10.29-4.646,15.836c1.962,25.079-5.911,40.273-23.036,44.555
		c1.151-19.063,9.519-37.144,7.808-56.726c-0.43-5.132,0.13-10.378-1.111-15.495C492.188,41.521,492.188,41.521,500.637,57.535z"/>
	<path fill="#BFB09B" d="M472.096,116.45c20.903-7.192,16.468-28.412,23.895-43.096c7.751,12.592,2.757,26.319,3.422,39.528
		c0.365,6.973-5.579,8.165-10.946,7.605c-7.524-0.787-11.854,3.795-16.492,8.229c-3.033-0.316-6.09-0.591-7.687-3.802
		c-2.489-4.135,0.065-6.608,2.96-8.984C468.974,115.071,470.596,115.234,472.096,116.45z"/>
	<path fill="#EAE5E0" d="M472.096,116.45c-1.282,0.032-2.522,0.081-3.803,0.113c-3.771,1.346-4.655-0.365-3.908-3.754
		c9.251-16.322,20.433-32.482,4.508-51.009c2.303-6.227,5.124-12.106,10.759-16.111c5.295,0.616,9.333,3.503,7.849,8.903
		C481.842,75.098,484.169,97.565,472.096,116.45z"/>
	<path fill="#E93736" d="M1089.809,202.552c5.092,2.822,10.133,5.643,15.209,8.465c11.045,7.89,15.975,18.316,13.268,31.898
		c-1.266,1.881-2.564,3.738-3.861,5.603c-10.639,5.027-17.609,3.438-17.139-10.086c0.404-12.333-10.543-21.763-8.549-34.437
		L1089.809,202.552z"/>
	<path fill="#EEE8E8" d="M393.486,785.204c-3.689-10.541-7.395-21.098-11.076-31.639c4.776-2.627,9.576-5.255,14.344-7.929
		c8.749,8.464,13.371,18.811,14.1,30.939C407.197,783.711,401.051,785.916,393.486,785.204z"/>
	<path fill="#A81F23" d="M1118.285,242.898c-4.412-10.622-8.854-21.251-13.268-31.898c3.115,0.682,6.389,1.046,9.375,2.092
		c8.465,2.976,19.539,4.2,21.211,14.701C1137.469,239.63,1122.938,236.412,1118.285,242.898z"/>
	<path fill="#E1DED9" d="M133.932,792.987c20.514,3.276,24.333,8.822,27.682,40.313
		C147.651,823.117,139.032,809.302,133.932,792.987z"/>
	<path fill="#A41E22" d="M460.785,725.818c9.811-1.199,5.943,9.99,11.441,12.714c1.264,3.342,2.505,6.714,3.77,10.056
		c2.643,16.021-13.719,10.994-19.524,17.643C447.033,751.603,461.182,739.505,460.785,725.818z"/>
	<path fill="#EFE4E3" d="M1088.736,203.995c4.77,11.936,12.537,23.182,12.229,36.447c-0.242,12.324,10.865,2.424,13.428,8.075
		c-8.434,12.666-15.99,15.39-21.732-1.978c1.023-13.2-1.945-25.379-8.949-36.666
		C1079.623,203.176,1082.316,201.887,1088.736,203.995z"/>
	<path fill="#F4F4F4" d="M23.66,336.873c1.289-15.162,5.927-28.533,19.841-36.917c2.011,1.8,2.222,3.771,0.681,5.952
		c-6.625,10.257-8.903,21.414-8.222,33.609c0.235,4.281,4.281,10.743-3.835,12.948C29.303,347.268,26.481,342.055,23.66,336.873z"/>
	<path fill="#ECE6E3" d="M425.035,725.852c12.187,11.999,4.914,21.763-3.592,31.396
		C417.032,746.123,400.622,733.667,425.035,725.852z"/>
	<path fill="#E1E1E1" d="M444.244,128.385c-12.803-0.957-26.83-5.279-32.044,13.086c-0.551,1.946-4.5,0.949-6.462-1.078
		c1.329-2.96,2.44-6.008,4.038-8.831C422.976,108.033,424.2,107.928,444.244,128.385z"/>
	<path fill="#EA3837" d="M408.462,777.192c-3.884-10.509-7.792-21.048-11.708-31.556c11.854-6.002,9.713,6.29,12.535,10.539
		c4.038,6.13,7.857,13.071,7.541,21.099c-1.111,1.021-2.222,2.011-3.34,2.999C409.654,782.836,408.892,780.242,408.462,777.192z"/>
	<path fill="#373737" d="M464.506,686.704c3.616,7.428,11.976,13.33,7.719,23.353c-6.26,4.217-12.69,9.698-12.139-4.703
		C460.338,698.704,460.436,692.315,464.506,686.704z"/>
	<path fill="#D1C8B9" d="M464.369,112.825c1.313,1.265,2.61,2.489,3.908,3.754c-1.346,2.773-2.66,5.562-4.006,8.335
		c-10.046-4.549-22.038-6.738-24.673-20.287C447.682,107.879,454.922,113.709,464.369,112.825z"/>
	<path fill="#AAAAAA" d="M649.92,291.394c-10.51,4.395-21.586,1.208-32.305,2.506c8.529-11.279,20.66-7.338,31.816-7.541
		C650.631,287.956,650.762,289.61,649.92,291.394z"/>
	<path fill="#AFAFAF" d="M802.5,276.126c-6.018,12.576-11.336,25.663-23.889,33.56c4.461-15.341,15.555-26.685,23.791-39.747
		C804.77,271.942,804.818,274.018,802.5,276.126z"/>
	<path fill="#F4F4F4" d="M649.92,291.394c-0.18-1.678-0.326-3.356-0.488-5.035c18.195,0.762,36.779-5.068,54.486,3.203
		C685.918,290.177,667.92,290.777,649.92,291.394z"/>
	<path fill="#7E7E7E" d="M51.933,387.704c1.03,8.238,2.043,16.476,3.057,24.738c-3.024,3.211,0.884,8.789-3.933,11.392
		c-5.611-12.268-2.894-25.185-2.854-37.874c0-0.519,0.592-1.014,0.908-1.549C50.044,385.515,50.993,386.609,51.933,387.704z"/>
	<path fill="#E4E4E4" d="M145.178,391.855c5.076,4.688,9.714,9.844,2.286,15.86c-4.313,3.503-9.413,1.508-11.237-3.194
		c-3.187-8.278,1.597-11.79,9.446-12.316C145.657,392.204,145.178,391.855,145.178,391.855z"/>
	<path fill="#E9E9E9" d="M802.5,276.126c-0.035-2.051-0.082-4.127-0.115-6.187c3.988-14.238,14.887-7.314,23.416-7.695
		C823.662,276.377,808.111,267.912,802.5,276.126z"/>
	<path fill="#331313" d="M456.487,766.23c4.5-8.076,16.67-7.654,19.524-17.643c4.979,2.982,8.157,7.069,8.141,13.135
		c-4.971,3.227-10.817,1.265-16.063,2.789c-3.933,1.232-7.89,2.417-11.838,3.665L456.487,766.23z"/>
	<path fill="#E4E4E4" d="M51.057,423.818c1.314-3.803,2.619-7.605,3.933-11.392c1.792,10.135,3.592,20.262,5.384,30.406
		c-0.235,1.613-0.486,3.203-0.713,4.8C48.779,442.581,53.344,431.959,51.057,423.818z"/>
	<path fill="#DDDDDC" d="M118.494,175.495c1.014,9.357,2.741,18.787-3.559,27.171C118.81,193.981,102.018,182.54,118.494,175.495z"
		/>
	<path fill="#282828" d="M774.818,969.618c-11.855,1.589-15.504-7.102-19.477-15.504c-16.361-34.605-14.773-71.563-10.184-107.466
		c5.887-46.104,17.012-91.591,25.055-137.436c1.979-11.335,3.016-23.449-3.18-34.411c37.916,12.811,63.828,41.352,90.391,68.985
		c7.914,8.238,1.494,14.107-4.248,19.734c-24.926,24.715-47.92,51.181-70.445,78.066c-22.768,27.148-23.691,57.911-15.697,90.163
		C770.164,944.288,776.699,956.063,774.818,969.618z"/>
	<path fill="#303030" d="M680.617,906.665c13.93-7.231,7.783-21.406,9.26-31.815c5.773-40.446,19.377-79.299,22.441-120.295
		c2.725-36.876-7.41-69.342-27.793-99.375c17.254,1.071,34.426,2.821,51.082,7.93c14.854,38.206,10.15,77.677,1.961,115.495
		C725.65,833.69,717.217,888.616,719.844,945c0.391,8.498,0.877,17.093-4.021,24.748c-11.125-4.801-14.334-17.417-23.74-23.937
		C690.232,932.157,674.99,922.494,680.617,906.665z"/>
	<path fill="#B0B0B0" d="M695.65,1111.027c6.469-18.521,13.328-36.845,24.322-53.321c-1.053,20.92-12.113,37.914-21.729,55.461
		c-0.066,0.065-1.137-0.195-1.557-0.551C696.232,1112.226,695.973,1111.578,695.65,1111.027z"/>
	<path fill="#494949" d="M723.801,1150.238c-13.119-7.591-6.584-19.947-7.395-30.552
		C721.627,1129.222,722.131,1139.86,723.801,1150.238z"/>
	<path fill="#861719" d="M1097.561,694.425c10.166-20.953,25.377-39.051,32.336-62.014c3.209-10.638,12.518-2.076,17.949,0.763
		c8.984,4.687,19.898,9.178,13.445,23.546c-11.336,25.072-23.773,49.363-43.98,68.726
		C1105.863,718.229,1103.203,705.354,1097.561,694.425z"/>
	<path fill="#801517" d="M1046.51,784.393c-11.256-29.028-4.801-51.017,24.066-66.034c7.621-3.955,12.648-12.972,18.906-19.654
		c15.941,1.396,20.416,7.688,21.633,30.423c0.828,13.054-13.799,14.789-17.918,24.26c-10.039,6.941-18.537,15.827-28.348,22.963
		C1059.516,780.242,1054.926,787.053,1046.51,784.393z"/>
	<path fill="#B92025" d="M974.896,812.578c0.326,1.295,0.26,2.562-0.209,3.794c-3.455,25.46-39.521,59.19-65.369,61.119
		c-2.756,0.195-4.961-1.167-6.779-3.178c-2.174-15.683-10.199-30.585-6.568-47.157C921.43,817.896,946.389,805.572,974.896,812.578z
		"/>
	<path fill="#781214" d="M985.973,844.654c-8.369,3.599-6.18-3.162-6.34-6.845c-0.797-16.637,2.756-33.762-6.34-49.477
		c-3.779-6.502,1.961-9.048,6.6-11.497c9.211-4.832,18.551-9.373,27.438-14.677c25.51-15.243,25.459-15.372,34.104,13.509
		c-1.605,3.407-8.027-0.907-7.963,5.108c-7.994,7.688-17.449,13.378-27.486,17.416c-13.963,5.66-19.979,15.179-17.869,29.985
		C988.357,833.789,987.645,839.269,985.973,844.654z"/>
	<path fill="#841618" d="M1165.41,638.898c-7.752-12.617-26.273-10.119-28.834-20.887c-2.336-9.86,4.088-22.72,9.064-33.114
		c2.967-6.211-2.449-18.949,8.74-18.147c10.281,0.73,16.641,10.444,17.027,21.049C1172.043,603.91,1174.359,620.379,1165.41,638.898
		z"/>
	<path fill="#7C1315" d="M974.896,812.578c-25.945,5.188-51.941,10.313-77.904,15.501c-1.133,1.428-2.529,1.784-4.279,1.137
		c-2.791-2.239-3.959-5.222-3.664-8.79c21.582-14.562,47.254-20.53,69.697-33.243c5.758-3.244,8.529,0.486,10.119,5.141
		C971.168,798.988,972.918,805.799,974.896,812.578z"/>
	<path fill="#AF2024" d="M889.049,820.426c1.102,2.236,2.221,4.51,3.338,6.779c2.807,5.609,5.256,11.317,5.256,17.773
		c0.957,11.868,0.26,23.578-3.99,34.799c-3.566,9.439-9.049,16.055-20.594,12.586c-1.963-19.298-4.85-38.595-5.547-57.96
		C867.01,820.135,881.197,824.254,889.049,820.426z"/>
	<path fill="#F8F5F5" d="M905.23,876.113c19.867-8.173,36.684-21.602,55.299-31.881c11.807-6.519,5.92-20.465,14.174-27.86
		c4.768,23.578-0.908,41.206-25.266,51.178c-13.621,5.581-25.914,14.467-38.887,21.633c-3.633,2.013-8.318,5.968-9.893-2.236
		C900.398,882.567,900.74,878.448,905.23,876.113z"/>
	<path fill="#F2EDEC" d="M985.973,844.654c-5.949-4.996-2.578-11.189-2.141-17.043c5.352-10.087,14.938-15.699,24.049-21.342
		c11.871-7.314,20.66-16.85,26.451-29.369c1.766-4.151,4.523-1.979,7.117-1.183c2.027,21.6-7.557,36.601-25.652,47.626
		C1005.418,829.702,995.914,837.519,985.973,844.654z"/>
	<path fill="#D8D4D4" d="M873.059,892.363c13.314-2.985,17.805-11.936,18.26-24.878c0.258-8.644-1.979-18,3.875-25.913
		c10.006,14.627,8.238,29.902,2.449,45.374c0.227,9.146-5.516,13.426-13.137,16.362c-4.492,1.734-9.016,6.909-13.783,2.595
		C865.451,901.119,873.105,897.099,873.059,892.363z"/>
	<path fill="#EAE4E4" d="M1046.51,784.393c15.795-10.022,27.568-26.012,46.688-31.006c-12.082,17.676-29.336,29.807-46.688,44.4
		C1046.51,791.983,1046.51,788.188,1046.51,784.393z"/>
	<path fill="#250E0E" d="M897.674,886.946c0.615-15.178,2.756-30.455-2.465-45.358c-0.973-4.8-1.865-9.566-2.807-14.367
		c1.527,0.307,3.066,0.583,4.59,0.892c5.32,15.569,9.084,31.395,8.238,48.032c-1.459,3.633,0.229,8.597-4.557,10.833l-1.541,0.099
		L897.674,886.946z"/>
	<path fill="#250D0D" d="M1111.115,729.127c-4.654-11.968-3.582-27.989-21.633-30.423c1.494-3.663,4.605-4.279,8.078-4.279
		c13.57,5.886,13.539,20.431,19.719,31.004C1115.234,726.661,1113.176,727.862,1111.115,729.127z"/>
	<path fill="#781214" d="M1148.738,538.421c7.525,7.516,12.031,14.157,14.352,22.849
		C1144.393,563.143,1148.674,550.842,1148.738,538.421z"/>
	<path fill="#020202" d="M220.748,392.066c1.2-2.773,2.392-5.53,3.608-8.279c2.36-1.63,5.53-9.008,7.273-1.678
		c2.059,8.635,1.605,16.865,13.378,17.782c11.093,0.867,16.777-6.528,21.576-14.166c4.063-6.511,6.374-14.133,9.463-21.252
		c17.4-41.515,47.773-70.842,86.985-91.567c27.641-14.611,57.066-20.919,88.437-16.857c8.384,1.095,17.685,2.773,23.53-5.246
		c6.543-9.016-1.541-15.276-5.448-22.614c-1.954-3.673-16.135-12.989,2.781-13.371c25.5,20.806,27.227,34.396,7.533,58.785
		c-8.035,2.919-12.536,5.959-11.425,17.254c5.148,52.477-13.962,84.991-59.134,104.662c-12.187,6.097-24.09,12.924-36.633,18.154
		c-29.603,12.357-58.015,5.4-83.685-10.176c-14.052-8.506-23.166-7.241-33.066,3.916
		C240.208,411.413,231.329,399.793,220.748,392.066z"/>
	<path fill="#202020" d="M472.331,214.836c-11.911,3.259-2.23,7.54,0.081,9.795c8.384,8.157,16.168,16.589,9.397,28.881
		c-6.827,12.39-19.727,9.917-30.057,8.036c-49.517-8.984-88.672,11.359-124.762,41.733c-20.636,17.368-35.636,39.422-50.944,61.209
		c7.127-40.671,34.622-66.139,67.217-86.499c27.317-17.035,57.674-26.555,90.375-27.884c13.047-0.511,25.258-2.854,19.395-22.022
		c-3.592-11.733,1.606-18.99,15.195-17.198C469.606,212.2,470.968,213.522,472.331,214.836z"/>
	<path fill="#121212" d="M264.889,332.592c-7.589-4.306-5.352-11.595-4.322-17.555c7.573-43.509,63.553-97.64,106.892-103.77
		c0.997-0.146,2.148,0.932,3.324,1.476c-9.446,11.53-27.868,7.89-35.968,21.471C302.219,260.437,276.695,291.637,264.889,332.592z"
		/>
	<path fill="#D6D5D5" d="M264.889,332.592c6.705-44.571,32.117-75.877,69.925-98.345
		C306.233,263.291,281.625,295.14,264.889,332.592z"/>
	<path fill="#0F0F0F" d="M188.136,297.054c-7.719-19.314-29.579-20.741-43.841-33.609c29.692,1.476,63.568,30.365,67.655,56.207
		c1.273,7.938-2.246,7.273-7.387,5.229C201.887,313.976,196.009,304.927,188.136,297.054z"/>
	<path fill="#E9E9E9" d="M94.81,254.291c5.197-14.182,10.378-28.363,15.56-42.561C118.827,228.206,112.713,244.958,94.81,254.291z"
		/>
	<path fill="#DCDBDB" d="M44.182,305.908c-0.235-1.978-0.446-3.973-0.681-5.952c6.689-6.77,13.403-13.565,20.093-20.335
		C63.544,293.113,51.722,297.929,44.182,305.908z"/>
	<path fill="#BCBCBC" d="M188.136,297.054c12.406,5.197,15.544,15.859,16.427,27.827
		C197.104,316.797,191.874,307.383,188.136,297.054z"/>
	<path fill="#202020" d="M598.593,1055.826c17.839-23.611,37.702-45.879,48.05-74.437c1.703-4.67,36.324-5.902,39.066-2.041
		c2.383,3.339-0.764,5.804-1.703,8.756c-3.6,11.465-11.221,20.725-18.227,29.74c-28.592,36.78-45.861,76.901-39.213,127.56
		c-14.66-16.411-3.129-36.486-15.633-50.788c-3.179,17.773,1.686,35.417-4.086,56.108c-6.503-9.05-9.017-15.6-8.75-23.19
		c0.333-8.433-0.811-16.801,2.108-25.2c2.489-7.167,6.642-14.237,4.436-28.183c-8.571,20.431-15.179,35.708-14.336,53.383
		c0.203,3.537,1.055,8.659-4.565,8.889c-3.057,0.127-3.219-3.44-3.219-6.099C581.955,1104.214,580.746,1077.976,598.593,1055.826z"
		/>
	<path fill="#222222" d="M531.229,997.314c-2.027-46.768,3.682-92.854,11.06-138.91c3.122-19.492-2.44-38.465-6.333-57.438
		c-1.03-5.092-7.403-10.865-0.349-15.795c6-4.184,12.673-7.232,19.266-0.438c-0.827,0.941-2.571,2.367-2.36,2.821
		c20.709,41.271,0.268,81.083-4.313,121.445c-2.327,20.416-4.784,40.524-10.281,60.764c-3.268,12.081,7.955,27.91,12.17,42.196
		c2.36,7.963,6.86,15.892,3.99,24.649c-1.347,4.119-2.327,10.037-7.857,9.892c-5.392-0.164-6.755-5.302-7.306-10.071
		c0.114-3.242-0.413-6.163-3.519-7.978C530.71,1018.495,528.034,1008.343,531.229,997.314z"/>
	<path fill="#A81F23" d="M664.48,910.72c4.248,10.217,8.465,20.434,12.73,30.616c-2.256,4.379-4.426,8.823-9.813,10.217
		c-22.037-7.59-44.611-14.336-60.422-33.342c-0.615-10.053,3.6-18,10.477-24.909C636.166,890.806,652.35,895.346,664.48,910.72z"/>
	<path fill="#741112" d="M574.057,832.653c7.897,6.844,18.065,8.269,27.527,11.415c27.707,10.187,29.588,16.104,14.686,46.121
		c-22.753,2.886-36.318-11.319-49.356-26.529C568.309,853.087,568.576,842.254,574.057,832.653z"/>
	<path fill="#AB1F23" d="M566.898,863.66c15.324,9.242,30.632,18.486,45.997,27.762c2.516,13.069-5.107,21.276-14.001,28.799
		c-2.741,1.087-5.514,1.233-8.352,0.521c-11.076-6.274-22.071-12.697-31.168-21.778C559.308,886.687,563.711,875.302,566.898,863.66
		z"/>
	<path fill="#731012" d="M664.48,910.72c-14.561-7.622-29.611-13.72-46.119-15.405c-1.93-12.422,3.893-23.646,5.447-35.531
		c0.795-5.805,4.607-7.136,9.795-4.72c15.455-1.069,24.324,3.356,23.904,21.57C657.23,887.95,661.967,899.368,664.48,910.72z"/>
	<path fill="#CF2527" d="M559.373,898.979c12.771,3.276,23.53,9.502,31.201,20.53c-8.733,23.416-21.001,29.806-35.847,18.681
		C554.014,924.86,556.786,911.952,559.373,898.979z"/>
	<path fill="#260F0F" d="M633.588,855.063c-12.666,2.044-6.502,13.443-9.664,20.143c-2.938,6.194-3.813,13.379-5.578,20.108
		c-2.936,7.427-5.889,14.838-8.84,22.265c-1.686,6.795-4.613,12.989-8.854,18.601c-4.232,6.568-8.927,12.729-14.473,18.211
		c-2.214,2.545-5.051,4.428-7.241,6.94c-4.5-1.152-4.572-4.767-4.703-8.399c2.919-15.049,15.479-23.611,23.66-35.093
		c7.606-7.314,13.087-15.859,14.983-26.401c1.006-3.063,1.996-6.098,3.082-9.146c5.869-16.752,7.037-31.72-14.36-38.224
		c11.44-0.873,21.591,3.778,31.874,7.721C633.443,852.923,633.506,853.994,633.588,855.063z"/>
	<path fill="#E9E1E1" d="M578.955,961.315c-2.214-4.51-0.616-7.591,3.616-9.697c14.781-4.735,29.271,1.654,43.931,1.068
		c13.994,2.822,28.021,5.986,41.141-3.144c3.162-2.726,6.375-5.481,9.568-8.207c0.695,17.482-7.217,27.892-25.186,26.823
		C627.621,966.667,603.312,963.684,578.955,961.315z"/>
	<path fill="#E9E2E2" d="M597.911,917.823c-2.553,15.275-16.054,23.188-23.66,35.093c-7.241,5.416-14.813,3.209-20.822-1.137
		c-5.197-3.729-0.414-9.08,1.297-13.59c19.825,8.889,25.452-9.486,35.847-18.681C593.03,918.957,595.455,918.375,597.911,917.823z"
		/>
	<path fill="#E7E7E7" d="M664.951,816.438c10.135,8.885,4.572,21.227,6.502,31.849c3.471,18.877,4.248,38.205,6.162,57.342
		c1.559,3.939-0.275,5.026-3.893,4.621C661.043,879.876,663.184,848.156,664.951,816.438z"/>
	<path fill="#DDDDDC" d="M598.593,1055.826c-10.922,23.611-10.289,49.751-16.119,74.482
		C572.363,1101.327,579.603,1067.824,598.593,1055.826z"/>
	<path fill="#B7B7B8" d="M673.707,910.265c1.283-1.556,2.58-3.079,3.877-4.637c1.021,0.341,2.01,0.681,3.033,1.053
		c-0.486,14.287,12.016,24.813,11.465,39.131C682.611,935.659,677.42,923.336,673.707,910.265z"/>
	<path fill="#EF3836" d="M496.088,875.206c-0.446,11.496-0.924,22.995-1.395,34.476c-24.844-4.865-39.982-21.617-51.496-42.568
		c-1.621-3.001-0.664-6.34,1.93-8.888c8.83-0.924,16.841-5.414,25.752-6.064C483.553,855.193,488.085,867.098,496.088,875.206z"/>
	<path fill="#F7F3F3" d="M408.462,777.192c1.395,1.46,1.743,4.704,5.043,3.05c-0.729,31.784,16.841,65.189,38.547,73.167
		c-7.062,5.807-14.497,8.173-22.8,2.435c-17.489-20.726-29.977-43.98-35.75-70.64C396.923,779.657,404.108,781.085,408.462,777.192z
		"/>
	<path fill="#B92025" d="M487.752,839.433c-9.681-22.479-19.93-44.823-15.405-70.38c20.384,9.794,28.874,21.956,27.544,39.503
		C497.564,819.519,503.532,833.756,487.752,839.433z"/>
	<path fill="#F0EBEB" d="M442.881,860.318c11.692,22.346,31.071,36.585,51.829,49.395c0.519,8.662,0.486,15.457-10.76,6.909
		c-20.854-15.826-39.074-34.055-53.815-55.736C434.132,855.227,438.471,856.815,442.881,860.318z"/>
	<path fill="#831618" d="M499.891,808.556c-0.633-19.103-19.744-25.362-27.544-39.503c-1.436-1.492-2.846-3.017-4.273-4.541
		c4.735-4.476,9.73-7.444,16.063-2.789c6.105,7.719,9.778,17.464,18.844,22.704C506.969,793.117,504.772,800.999,499.891,808.556z"
		/>
	<path fill="#DA2A27" d="M496.088,875.206c-13.63,0.372-14.084-15.309-23.878-19.639c2.327-10.947,13.086-7.785,19.613-11.676
		C505.956,852.601,496.574,864.503,496.088,875.206z"/>
	<path fill="#919090" d="M511.583,818.058c-3.819,22.898,3.421,46.477-3.9,69.245C503.264,863.887,499.607,840.501,511.583,818.058z
		"/>
	<path fill="#421C1C" d="M491.807,843.907c-4.719,6.909-14.117,6.033-19.614,11.676c-9.762,1.589-19.525,3.146-29.312,4.735
		c-4.265,0.195-8.514,0.391-12.771,0.552c-0.308-1.688-0.591-3.342-0.875-5.026c7.589-0.812,15.178-1.639,22.784-2.416
		c5.376-2.208,10.744-4.379,16.104-6.568c8.076,1.979,13.225-5.027,20.181-6.554C489.48,841.539,490.655,842.706,491.807,843.907z"
		/>
	<path fill="#D7D6D6" d="M527.175,776.576c0.414,16.023-11.692,27.244-15.794,41.58
		C501.821,798.631,516.448,788.382,527.175,776.576z"/>
	<path fill="#E8E8E8" d="M390.413,894.243c-0.616-14.336-0.616-28.734-5.165-42.617c0.6-1.118,1.014-2.336,1.192-3.6
		c2.23-2.595,4.435-2.595,6.625,0c0.454,8.951,0.932,17.936,1.378,26.889C393.502,881.431,401.238,889.768,390.413,894.243z"/>
	<path fill="#A1A1A0" d="M393.064,848.026c-2.206,0-4.427,0-6.625,0c-0.268-11.936-1.176-23.887-0.592-35.773
		c0.43-8.303,3.033-4.005,4.695-0.064C391.377,824.155,392.237,836.091,393.064,848.026z"/>
	<path fill="#050505" d="M531.229,997.314c1.379,10.412,2.773,20.759,4.151,31.104c-1.443,0.065-2.894,0.065-4.337,0.13
		C526.526,1018.104,524.467,1007.695,531.229,997.314z"/>
	<path fill="#3D3D3D" d="M389.7,985.639c8.684-20.853,11.538-42.129,4.678-64.12c3.122-8.706-5.498-19.087,3.867-26.886
		c14.481,31.655,10.468,65.4,11.247,98.612c-4.055,14.838-8.092,29.61-12.17,44.482c-6.746-0.682-9.203-4.978-11.133-9.843
		C386.708,1013.726,385.15,999.424,389.7,985.639z"/>
	<path fill="#777777" d="M398.229,894.633c-2.505,8.79,2.627,18.682-3.868,26.886c-2.627-8.919-6.673-17.594-3.949-27.291
		c5.23-5.643,1.127-13.199,4.03-19.331C398.545,880.945,396.818,888.08,398.229,894.633z"/>
	<path fill="#DFDFDE" d="M389.7,985.639c-1.565,14.011,3.933,28.672-3.511,42.228C382.272,1013.369,380.115,999.002,389.7,985.639z"
		/>
	<path fill="#2E2E2E" d="M401.651,474.3c35.936,55.615,31.274,150.067-12.008,195.604c-40.095,42.229-88.786,68.92-148.617,71.807
		c-26.538,1.298-52.574,8.4-79.307,7.654c9.576-35.644,35.879-58.736,61.939-81.861c19.678-17.466,43.589-30.049,59.441-51.86
		c5.903,3.292,8.206,14.351,18.34,8.433c2.287-1.329,4.63-2.514,7.103-3.471c18.981-7.184,39.569-11.092,54.099-27.073
		c7.678-8.733,7.678-8.733,19.346-3.455c-14.263-15.381-25.086-29.441-45.593-28.897c-3.771,0.138-7.663-1.046-9.77-4.979
		c17.043-3.122,27.9-14.23,36.365-28.331C374.383,508.922,392.886,495.122,401.651,474.3z"/>
	<path fill="#0C0C0C" d="M59.822,611.735c-3.997,0.665-3.057,8.06-7.654,6.568c-4.962-1.59-3.235-6.163-1.581-9.536
		c2.773-5.603,5.984-11.003,9-16.516c12.908-17.749,25.346-22.152,43.144-15.276c6.527,2.838,13.055,5.676,19.582,8.522
		c2.741,2.237,5.448,4.459,8.182,6.689c5.334,6.527,10.646,13.054,15.981,19.598c2.319,6.098,4.362,12.26,3.487,18.941
		c-1.119,8.659-3.089,17.383-12.787,19.783c-10.881,2.757-11.911-6.779-15.227-13.686c-5.944-12.292-12.008-24.845-27.333-28.185
		c-6,2.562-11.692,5.887-18.074,7.442c-6.819,1.671-11.79,0.536-11.773-7.962c3.511-9.673,12.438-12.114,20.676-15.487
		c25.889,1.411,40.955,16.378,49.436,39.585c-2.587-19.915-9.43-28.039-32.465-38.418c-17.449-4.337-31.168,0.511-40.403,16.427
		C61.282,610.746,60.553,611.232,59.822,611.735z"/>
	<path fill="#4D4D4D" d="M67.712,608.379c0.616,6.13,4.07,5.643,7.954,3.211c5.943-3.715,12.3-4.03,18.949-2.968
		c-12.657,11.449-12.105,21.113,4.046,28.281c15.746,6.974,8.254,13.51-0.194,20.075c-9.284,7.25-22.452,6.002-31.242,14.271
		c-7.881-19.168-8.594-39.212-7.403-59.531c0.017,0-0.381,0.357-0.381,0.357C61.833,610.065,62.896,605.038,67.712,608.379z"/>
	<path fill="#0A0A0A" d="M307.263,623.768c-1.33,1.281-2.651,2.579-3.981,3.844c-0.819-0.389-1.662-0.81-2.489-1.2
		c-6.56-27.713,10.378-53.06,40.136-61.274c-16.444-1.979-28.266,10.874-42.893,16.273c-0.868-0.316-1.744-0.616-2.627-0.932
		c4.354-15.876,16.306-21.949,31.201-24.276c21.058-1.792,38.741,4.297,51.244,22.151c4.987,7.144,10.711,14.376,5.603,24.309
		c-8.587-2.684-3.341-11.789-10.063-15.09c-5.383-0.348-2.181,8.214-7.24,8.782c-4.152-0.381-7.079-3.122-10.265-5.417
		c-12.973-9.349-23.182-5.408-31.72,6.576C318.144,606.02,315.565,616.746,307.263,623.768z"/>
	<path fill="#1E1E1E" d="M409.289,395.537c11.806-11.019,26.741-18.341,36.95-31.282c22.151-28.111,22.135-59.433,13.435-92.223
		c7.16-5.416,13.387,2.368,20.207,1.589c9.997,32.546-6.008,59.32-19.379,86.653C446.652,376.709,433.703,394.442,409.289,395.537z"
		/>
	<path fill="#0A0A0A" d="M303.298,627.611c-14.733,9.503-19.03,1.46-20.174-11.968c1.59-12.616-0.203-26.4,12.317-35.182
		l-0.049-0.033c9.349,7.809,4.021,17.716,4.297,27c0.235,6.738-7.038,15.383,3.738,20.279L303.298,627.611z"/>
	<path fill="#E72E2D" d="M865.307,340.741c6.033,5.068,7.928,11.854,7.994,19.395c-15.195,34.306-41.176,60.975-64.201,89.604
		c-39.438,49.022-85.232,92.564-123.02,142.973c-8.936,11.96-18.291,23.741-21.227,38.985c-10.93-0.778-23.043,3.113-31.51-7.654
		c11.418-29.198,33.18-51.333,53.014-74.256c59.271-68.393,121.996-133.851,175.623-207.036
		C862.68,341.787,864.17,341.39,865.307,340.741z"/>
	<path fill="#848484" d="M102.731,576.975c-16.59-1.111-30.374,5.644-43.144,15.276c-2.14-22.614,2.327-44.653,6.114-66.707
		c1.078-6.325,2.838-12.52,0.9-18.925c11.757,3.932,15.754-6.576,21.949-12.26c20.725-19.079,41.879-36.496,71.556-40.314
		c15.325-1.978,29.312-1.532,37.776,12.235c9.3,15.114-0.998,28.014-10.111,38.522c-20.157,23.222-47.077,38.481-71.093,57.18
		C111.318,566.167,103.177,568.104,102.731,576.975z"/>
	<path fill="#B42025" d="M1034.332,776.9c2.059,11.433-2.109,19.298-12.211,25.298c-13.17,7.85-25.592,16.899-38.289,25.395
		c-3.469-16.313,1.979-26.82,18.34-32.951C1013.525,790.393,1023.645,782.934,1034.332,776.9z"/>
	<path fill="#F5F6F6" d="M382.637,397.402c-34.403,18.997-62.669,13.881-90.602-0.163c-4.93-2.481-8.238-5.603-3.3-12.13
		c10.541-13.913,19.378-29.222,35.498-41.676C331.247,373.158,344.625,395.537,382.637,397.402z"/>
	<path fill="#F7F8F8" d="M417.065,301.732c5.375,14.464,3.405,27.008-10.946,34.857c-11.092,6.081-21.6,3.275-29.376-6.406
		c-5.481-6.843-6.909-14.935-3.471-23.684c5.068-12.933,15.382-16.386,27.819-16.573
		C408.462,291.126,415.005,293.413,417.065,301.732z"/>
	<path fill="#F3F3F3" d="M452.036,282.872c4.265,24.941,5.06,49.233-14.352,73.266c-0.859-22.703,1.078-44.003-17.287-58.323
		c-6.527-5.327-4.33-11.076,1.516-13.614C431.409,280.083,441.641,273.904,452.036,282.872z"/>
	<path fill="#292929" d="M452.036,282.872c-8.984,1.378-17.936,2.805-26.903,4.119c-7.435,1.095-8.035,5.06-4.751,10.809
		c-1.111,1.313-2.221,2.611-3.333,3.933c-5.319-3.933-10.646-7.866-15.957-11.806c10.192-15.941,26.733-18.316,43.371-19.46
		C452.814,269.883,453.26,276.394,452.036,282.872z"/>
	<path fill="#F4F4F4" d="M430.095,350.041c0.332,6.86-3.033,11.441-9.779,12.09c-7.889,0.762-12.187-4.006-12.284-11.595
		c-0.089-6.754,3.917-11.303,10.76-11.319C425.352,339.201,429.803,342.768,430.095,350.041z"/>
	<path fill="#C32527" d="M667.627,949.543c-8.969,19.362-24.52,9.533-38.061,8.561c-10.037-8.82-25.508-10.443-31.882-24.098
		c3.933-5.481,7.897-10.961,11.821-16.427C626.713,932.19,648.686,938.094,667.627,949.543z"/>
	<path fill="#DB2B29" d="M597.685,934.006c10.882,7.687,25.753,10.103,31.882,24.098c-16.104,1.121-31.517-2.837-46.996-6.501
		C587.622,945.746,592.633,939.877,597.685,934.006z"/>
	<path fill="#1B1B1B" d="M307.263,623.768c3.121-7.67,5.7-15.616,9.502-22.946c13.784-26.57,30.853-27.998,49.404-4.451
		C350.521,614.087,329.52,620.249,307.263,623.768z"/>
	<path fill="#454545" d="M101.905,589c22.379,4.694,34.087,20.06,39.917,40.753c1.613,5.708,1.443,13.59-5.4,15.016
		c-8.895,1.864-4.914-6.908-6.105-10.996c-6.324-21.972-21.754-33.25-43.241-37.638C88.023,585.498,97.883,593.313,101.905,589z"/>
	<path fill="#C4C4C4" d="M101.905,589c-2.992,6.422-11.166,2.124-14.847,7.135c-8.287,1.184-14.878,5.035-19.346,12.244
		c-2.773,1.232-5.53,2.497-8.303,3.729C67.729,593.646,81.261,584.816,101.905,589z"/>
	<path fill="#353635" d="M303.395,627.709c-7.436,0.064-11.676-0.714-9.576-10.963c2.384-11.725,1.192-24.179,1.541-36.317
		c16.67-11.79,32.279-27.998,55.663-13.663C316.96,573.586,300.144,595.227,303.395,627.709z"/>
</g>
</svg>
